<svg height="480pt" viewBox="0 0 480 480" width="480pt" xmlns="http://www.w3.org/2000/svg"><path d="m432 240c0 106.039062-85.960938 192-192 192s-192-85.960938-192-192 85.960938-192 192-192 192 85.960938 192 192zm0 0" fill="#8690fa"/><path d="m268 328c0-13.253906-12.535156-24-28-24s-28 10.746094-28 24 12.535156 24 28 24 28-10.746094 28-24zm0 0" fill="#5153ff"/><path d="m320 288-8-80c0-35.34375-36.65625-64-72-64s-72 28.65625-72 64l-8 80c-17.671875 0-32 14.328125-32 32h224c0-17.671875-14.328125-32-32-32zm0 0" fill="#cfd2fc"/><path d="m240 0c-132.546875 0-240 107.453125-240 240s107.453125 240 240 240 240-107.453125 240-240c-.148438-132.484375-107.515625-239.851562-240-240zm0 464c-123.710938 0-224-100.289062-224-224s100.289062-224 224-224 224 100.289062 224 224c-.140625 123.652344-100.347656 223.859375-224 224zm0 0"/><path d="m327.304688 280.664062-7.304688-72.664062c0-33.601562-28-60.207031-58.824219-68.945312 1.828125-3.398438 2.796875-7.195313 2.824219-11.054688 0-13.253906-10.746094-24-24-24s-24 10.746094-24 24c.027344 3.859375.996094 7.65625 2.824219 11.054688-30.824219 8.707031-58.824219 35.234374-58.785157 68.144531l-7.34375 73.464843c-18.9375 3.550782-32.667968 20.070313-32.695312 39.335938 0 4.417969 3.582031 8 8 8h76c1.1875 18.738281 17.253906 33.015625 36 32 18.746094 1.015625 34.8125-13.261719 36-32h76c4.417969 0 8-3.582031 8-8-.027344-19.265625-13.757812-35.785156-32.695312-39.335938zm-95.304688-152.664062c0-4.417969 3.582031-8 8-8s8 3.582031 8 8-3.582031 8-8 8-8-3.582031-8-8zm8 216c-9.894531.941406-18.75-6.140625-20-16h40c-1.25 9.859375-10.105469 16.941406-20 16zm-102.632812-32c3.402343-9.582031 12.464843-15.988281 22.632812-16 4.125.019531 7.585938-3.097656 8-7.199219l8-80.800781c0-31.535156 34.398438-56 64-56s64 24.464844 64.039062 56.800781l8 80c.410157 4.085938 3.851563 7.199219 7.960938 7.199219 10.167969.011719 19.230469 6.417969 22.632812 16zm0 0"/></svg>